<svg version="1.1" preserveAspectRatio="none" xmlns="http://www.w3.org/2000/svg" width="500" height="500" viewBox="0 0 500 500"><rect width="100%" height="100%" fill="#FFFFFF" fill-opacity="1"/><svg viewBox="309.6676 399.9999 380.6646 169.9999" width="333" height="148.71350448662682" x="83.5px" y="175.6432px" xmlns="http://www.w3.org/2000/svg" xmlns:xlink="http://www.w3.org/1999/xlink" preserveAspectRatio="none"><defs></defs><style>.companyName {fill:#282828;fill-opacity:1;}.icon2 {fill:#E56642;fill-opacity:1;}.icon3 {fill:#FD8D6E;fill-opacity:1;}.icon3-str {stroke:#FD8D6E;stroke-opacity:1;}.shapeStroke-str {stroke:#282828;stroke-opacity:1;}</style><g opacity="1" transform="rotate(0 484.9999 399.9999)">
<svg width="30" height="29.9999" x="484.9999" y="399.9999" version="1.1" preserveAspectRatio="none" viewBox="20 20 807 807">
  <g transform="matrix(1 0 0 1 0 0)" class="icon3"><defs></defs><g><polygon class="fil0" points="423,304 707,20 827,140 543,423 827,707 707,827 423,543 140,827 20,707 304,423 20,140 140,20 "></polygon></g></g>
</svg>
</g><g opacity="1" transform="rotate(0 309.6676 411.9999)">
<svg width="165.3323" height="6" x="309.6676" y="411.9999" version="1.1" preserveAspectRatio="none" viewBox="0 0 165.3323 6">
  <defs><rect x="0" y="0" width="165.3323" height="6" rx="0px" ry="0px" id="id-sr1BtIxl1685528817410"></rect></defs><use class="icon3 shapeStroke-str" style="stroke-width:0;" xlink:href="#id-sr1BtIxl1685528817410"></use>
</svg>
</g><g opacity="1" transform="rotate(0 524.9999 411.9999)">
<svg width="165.3323" height="6" x="524.9999" y="411.9999" version="1.1" preserveAspectRatio="none" viewBox="0 0 165.3323 6">
  <defs><rect x="0" y="0" width="165.3323" height="6" rx="0px" ry="0px" id="id-R9TavoXY1685528817410"></rect></defs><use class="icon3 shapeStroke-str" style="stroke-width:0;" xlink:href="#id-R9TavoXY1685528817410"></use>
</svg>
</g><g opacity="1" transform="rotate(0 309.6676 449.9998)">
<svg width="380.6646" height="120" x="309.6676" y="449.9998" version="1.1" preserveAspectRatio="none" viewBox="1.52 -28.32 90.88000000000001 28.64">
  <g transform="matrix(1 0 0 1 0 0)" class="companyName"><path id="id-D6z1nYkh5" d="M8.96 0.32Q5.68 0.32 3.64-1.70Q1.60-3.72 1.60-6.92L1.60-6.92L1.60-8.04Q1.60-8.24 1.74-8.38Q1.88-8.52 2.08-8.52L2.08-8.52L5.68-8.52Q5.88-8.52 6.02-8.38Q6.16-8.24 6.16-8.04L6.16-8.04L6.16-7.16Q6.16-5.60 6.96-4.64Q7.76-3.68 8.96-3.68L8.96-3.68Q10.20-3.68 11-4.58Q11.80-5.48 11.80-6.96L11.80-6.96Q11.80-7.96 11.36-8.74Q10.92-9.52 10.14-10.20Q9.36-10.88 7.60-12.16L7.60-12.16Q5.60-13.60 4.38-14.72Q3.16-15.84 2.34-17.42Q1.52-19 1.52-21.08L1.52-21.08Q1.52-24.40 3.52-26.36Q5.52-28.32 8.76-28.32L8.76-28.32Q12.12-28.32 14.16-26.26Q16.20-24.20 16.20-20.80L16.20-20.80L16.20-19.84Q16.20-19.64 16.06-19.50Q15.92-19.36 15.72-19.36L15.72-19.36L12.08-19.36Q11.88-19.36 11.74-19.50Q11.60-19.64 11.60-19.84L11.60-19.84L11.60-20.88Q11.60-22.44 10.82-23.38Q10.04-24.32 8.76-24.32L8.76-24.32Q7.60-24.32 6.84-23.46Q6.08-22.60 6.08-21.08L6.08-21.08Q6.08-19.64 6.90-18.64Q7.72-17.64 10.12-15.88L10.12-15.88Q12.56-14.04 13.80-12.92Q15.04-11.80 15.72-10.44Q16.40-9.08 16.40-7.20L16.40-7.20Q16.40-3.80 14.34-1.74Q12.28 0.32 8.96 0.32L8.96 0.32Z M28.76-28.04Q30.88-28.04 32.50-27Q34.12-25.96 35.02-24.08Q35.92-22.20 35.92-19.80L35.92-19.80Q35.92-16.20 34.02-14Q32.12-11.80 29-11.80L29-11.80L25.60-11.80Q25.40-11.80 25.40-11.60L25.40-11.60L25.40-0.48Q25.40-0.28 25.26-0.14Q25.12 0 24.92 0L24.92 0L21.24 0Q21.04 0 20.90-0.14Q20.76-0.28 20.76-0.48L20.76-0.48L20.76-27.56Q20.76-27.76 20.90-27.90Q21.04-28.04 21.24-28.04L21.24-28.04L28.76-28.04ZM28-15.44Q29.48-15.44 30.38-16.58Q31.28-17.72 31.28-19.68L31.28-19.68Q31.28-21.68 30.38-22.86Q29.48-24.04 28-24.04L28-24.04L25.60-24.04Q25.40-24.04 25.40-23.84L25.40-23.84L25.40-15.64Q25.40-15.44 25.60-15.44L25.60-15.44L28-15.44Z M50.96 0Q50.48 0 50.44-0.44L50.44-0.44L49.68-4.64Q49.68-4.84 49.44-4.84L49.44-4.84L43.64-4.84Q43.40-4.84 43.40-4.68L43.40-4.68L42.60-0.44Q42.56 0 42.08 0L42.08 0L38.40 0Q37.88 0 38-0.52L38-0.52L43.88-27.56Q43.96-28 44.40-28L44.40-28L48.68-28Q49.12-28 49.20-27.56L49.20-27.56L55.12-0.52L55.12-0.36Q55.12 0 54.68 0L54.68 0L50.96 0ZM44.20-8.68Q44.16-8.48 44.40-8.48L44.40-8.48L48.76-8.48Q49-8.48 48.96-8.68L48.96-8.68L46.76-20.76Q46.72-20.88 46.64-20.88Q46.56-20.88 46.52-20.76L46.52-20.76L44.20-8.68Z M66 0.32Q62.60 0.32 60.54-1.74Q58.48-3.80 58.48-7.20L58.48-7.20L58.48-20.84Q58.48-24.28 60.54-26.30Q62.60-28.32 66-28.32L66-28.32Q69.44-28.32 71.52-26.30Q73.60-24.28 73.60-20.84L73.60-20.84L73.60-20.36Q73.60-20.16 73.46-20Q73.32-19.84 73.12-19.84L73.12-19.84L69.40-19.68Q68.92-19.68 68.92-20.16L68.92-20.16L68.92-21.16Q68.92-22.56 68.12-23.44Q67.32-24.32 66-24.32L66-24.32Q64.72-24.32 63.92-23.44Q63.12-22.56 63.12-21.16L63.12-21.16L63.12-6.84Q63.12-5.44 63.92-4.56Q64.72-3.68 66-3.68L66-3.68Q67.32-3.68 68.12-4.56Q68.92-5.44 68.92-6.84L68.92-6.84L68.92-7.84Q68.92-8.04 69.06-8.18Q69.20-8.32 69.40-8.32L69.40-8.32L73.12-8.16Q73.32-8.16 73.46-8.02Q73.60-7.88 73.60-7.68L73.60-7.68L73.60-7.20Q73.60-3.80 71.52-1.74Q69.44 0.32 66 0.32L66 0.32Z M92.40-24.48Q92.40-24.28 92.26-24.14Q92.12-24 91.92-24L91.92-24L83.28-24Q83.08-24 83.08-23.80L83.08-23.80L83.08-16.24Q83.08-16.04 83.28-16.04L83.28-16.04L88.40-16.04Q88.60-16.04 88.74-15.90Q88.88-15.76 88.88-15.56L88.88-15.56L88.88-12.48Q88.88-12.28 88.74-12.14Q88.60-12 88.40-12L88.40-12L83.28-12Q83.08-12 83.08-11.80L83.08-11.80L83.08-4.20Q83.08-4 83.28-4L83.28-4L91.92-4Q92.12-4 92.26-3.86Q92.40-3.72 92.40-3.52L92.40-3.52L92.40-0.48Q92.40-0.28 92.26-0.14Q92.12 0 91.92 0L91.92 0L78.92 0Q78.72 0 78.58-0.14Q78.44-0.28 78.44-0.48L78.44-0.48L78.44-27.52Q78.44-27.72 78.58-27.86Q78.72-28 78.92-28L78.92-28L91.92-28Q92.12-28 92.26-27.86Q92.40-27.72 92.40-27.52L92.40-27.52L92.40-24.48Z"/></g>
</svg>
</g></svg></svg>